# Blender v2.76 (sub 0) OBJ File: 'Gate.blend'
# www.blender.org
o Circle
v -0.195090 0.000000 0.980785
v -0.382683 0.000000 0.923880
v -0.555570 0.000000 0.831470
v -0.707107 0.000000 0.707107
v -0.831470 0.000000 0.555570
v -0.923880 0.000000 0.382683
v -0.980785 0.000000 0.195090
v -1.000000 0.000000 0.000000
v -0.980785 -0.000000 -0.195090
v -0.923880 -0.000000 -0.382683
v -0.831470 -0.000000 -0.555570
v -0.707107 -0.000000 -0.707107
v -0.555570 -0.000000 -0.831470
v -0.382683 -0.000000 -0.923880
v -0.195090 -0.000000 -0.980785
v 0.195091 -0.000000 -0.980785
v 0.382684 -0.000000 -0.923879
v 0.555571 -0.000000 -0.831469
v 0.707107 -0.000000 -0.707106
v 0.831470 -0.000000 -0.555570
v 0.923880 -0.000000 -0.382683
v 0.980785 -0.000000 -0.195089
v 1.000000 0.000000 0.000001
v 0.980785 0.000000 0.195091
v 0.923879 0.000000 0.382684
v 0.831469 0.000000 0.555571
v 0.707106 0.000000 0.707108
v 0.555569 0.000000 0.831470
v 0.382682 0.000000 0.923880
v 0.195089 0.000000 0.980786
v -0.234108 0.000000 1.176942
v -0.459220 0.000000 1.108655
v -0.666684 0.000000 0.997764
v -0.848528 0.000000 0.848528
v -0.997764 0.000000 0.666684
v -1.108655 0.000000 0.459220
v -1.176942 0.000000 0.234108
v -1.200000 0.000000 0.000000
v -1.176942 -0.000000 -0.234108
v -1.108655 -0.000000 -0.459220
v -0.997764 -0.000000 -0.666684
v -0.848528 -0.000000 -0.848528
v -0.666684 -0.000000 -0.997764
v -0.459220 -0.000000 -1.108656
v -0.234108 -0.000000 -1.176943
v 0.234109 -0.000000 -1.176942
v 0.459221 -0.000000 -1.108655
v 0.666685 -0.000000 -0.997763
v 0.848529 -0.000000 -0.848528
v 0.997764 -0.000000 -0.666684
v 1.108656 -0.000000 -0.459219
v 1.176943 -0.000000 -0.234107
v 1.200000 0.000000 0.000001
v 1.176942 0.000000 0.234110
v 1.108655 0.000000 0.459221
v 0.997763 0.000000 0.666685
v 0.848527 0.000000 0.848529
v 0.666683 0.000000 0.997764
v 0.459219 0.000000 1.108656
v 0.234107 0.000000 1.176943
v -0.195090 -0.300000 0.980785
v -0.382683 -0.300000 0.923880
v -0.555570 -0.300000 0.831470
v -0.707107 -0.300000 0.707107
v -0.831470 -0.300000 0.555570
v -0.923880 -0.300000 0.382683
v -0.980785 -0.300000 0.195090
v -1.000000 -0.300000 0.000000
v -0.980785 -0.300000 -0.195090
v -0.923880 -0.300000 -0.382683
v -0.831470 -0.300000 -0.555570
v -0.707107 -0.300000 -0.707107
v -0.555570 -0.300000 -0.831470
v -0.382683 -0.300000 -0.923880
v -0.195090 -0.300000 -0.980785
v 0.195091 -0.300000 -0.980785
v 0.382684 -0.300000 -0.923879
v 0.555571 -0.300000 -0.831469
v 0.707107 -0.300000 -0.707106
v 0.831470 -0.300000 -0.555570
v 0.923880 -0.300000 -0.382683
v 0.980785 -0.300000 -0.195089
v 1.000000 -0.300000 0.000001
v 0.980785 -0.300000 0.195091
v 0.923879 -0.300000 0.382685
v 0.831469 -0.300000 0.555571
v 0.707106 -0.300000 0.707108
v 0.555569 -0.300000 0.831470
v 0.382682 -0.300000 0.923880
v 0.195089 -0.300000 0.980786
v -0.234108 -0.300000 1.176942
v -0.459220 -0.300000 1.108655
v -0.666684 -0.300000 0.997764
v -0.848528 -0.300000 0.848528
v -0.997764 -0.300000 0.666684
v -1.108655 -0.300000 0.459220
v -1.176942 -0.300000 0.234108
v -1.200000 -0.300000 0.000000
v -1.176942 -0.300000 -0.234108
v -1.108655 -0.300000 -0.459220
v -0.997764 -0.300000 -0.666684
v -0.848528 -0.300000 -0.848528
v -0.666684 -0.300000 -0.997764
v -0.459220 -0.300000 -1.108656
v -0.234108 -0.300000 -1.176943
v 0.234109 -0.300000 -1.176942
v 0.459221 -0.300000 -1.108655
v 0.666685 -0.300000 -0.997763
v 0.848529 -0.300000 -0.848528
v 0.997764 -0.300000 -0.666684
v 1.108656 -0.300000 -0.459219
v 1.176943 -0.300000 -0.234107
v 1.200000 -0.300000 0.000001
v 1.176942 -0.300000 0.234110
v 1.108655 -0.300000 0.459221
v 0.997763 -0.300000 0.666686
v 0.848527 -0.300000 0.848529
v 0.666683 -0.300000 0.997764
v 0.459219 -0.300000 1.108656
v 0.234107 -0.300000 1.176943
v -0.923880 -0.738654 0.382684
v -0.831470 -0.738654 0.555570
v -0.980785 -0.738654 0.195090
v -0.923880 -0.738654 -0.382683
v -0.980785 -0.738654 -0.195090
v -0.831470 -0.738654 -0.555570
v 0.923880 -0.738654 -0.382683
v 0.831470 -0.738654 -0.555570
v 0.980785 -0.738654 -0.195089
v 0.923879 -0.738654 0.382685
v 0.980785 -0.738654 0.195091
v 0.831469 -0.738654 0.555571
v -1.108655 -0.738654 0.459220
v -0.997764 -0.738654 0.666684
v -1.176942 -0.738654 0.234108
v -1.108655 -0.738654 -0.459220
v -1.176942 -0.738654 -0.234108
v -0.997764 -0.738655 -0.666684
v 1.108656 -0.738654 -0.459219
v 0.997764 -0.738655 -0.666684
v 1.176943 -0.738654 -0.234107
v 1.108655 -0.738654 0.459221
v 1.176942 -0.738654 0.234110
v 0.997763 -0.738654 0.666686
v -0.980785 -1.552912 0.195091
v -0.923880 -1.552912 0.382684
v -0.923880 -1.552912 -0.382683
v -0.980785 -1.552912 -0.195090
v 0.980785 -1.552912 -0.195089
v 0.923880 -1.552912 -0.382682
v 0.923879 -1.552912 0.382685
v 0.980785 -1.552912 0.195092
v -1.176942 -1.552912 0.234109
v -1.108655 -1.552912 0.459220
v -1.108655 -1.552912 -0.459220
v -1.176942 -1.552912 -0.234108
v 1.176943 -1.552912 -0.234107
v 1.108656 -1.552912 -0.459219
v 1.108655 -1.552912 0.459222
v 1.176942 -1.552912 0.234110
v -0.382683 0.000000 0.923880
v -0.195090 0.000000 0.980785
v -0.195090 0.000000 0.980785
v -0.555570 0.000000 0.831470
v -0.707107 0.000000 0.707107
v -0.831470 0.000000 0.555570
v -0.923880 0.000000 0.382683
v -0.980785 0.000000 0.195090
v -1.000000 0.000000 0.000000
v -0.980785 -0.000000 -0.195090
v -0.923880 -0.000000 -0.382683
v -0.831470 -0.000000 -0.555570
v -0.707107 -0.000000 -0.707107
v -0.555570 -0.000000 -0.831470
v -0.382683 -0.000000 -0.923880
v -0.195090 -0.000000 -0.980785
v -0.195090 -0.000000 -0.980785
v 0.382684 -0.000000 -0.923879
v 0.195091 -0.000000 -0.980785
v 0.195091 -0.000000 -0.980785
v 0.555571 -0.000000 -0.831469
v 0.707107 -0.000000 -0.707106
v 0.831470 -0.000000 -0.555570
v 0.923880 -0.000000 -0.382683
v 0.980785 -0.000000 -0.195089
v 1.000000 0.000000 0.000001
v 0.980785 0.000000 0.195091
v 0.923879 0.000000 0.382684
v 0.831469 0.000000 0.555571
v 0.707106 0.000000 0.707108
v 0.555569 0.000000 0.831470
v 0.382682 0.000000 0.923880
v 0.195089 0.000000 0.980786
v 0.195089 0.000000 0.980786
v -0.459220 0.000000 1.108655
v -0.234108 0.000000 1.176942
v -0.234108 0.000000 1.176942
v -0.666684 0.000000 0.997764
v -0.848528 0.000000 0.848528
v -0.997764 0.000000 0.666684
v -1.108655 0.000000 0.459220
v -1.176942 0.000000 0.234108
v -1.200000 0.000000 0.000000
v -1.176942 -0.000000 -0.234108
v -1.108655 -0.000000 -0.459220
v -0.997764 -0.000000 -0.666684
v -0.848528 -0.000000 -0.848528
v -0.666684 -0.000000 -0.997764
v -0.459220 -0.000000 -1.108656
v -0.234108 -0.000000 -1.176943
v -0.234108 -0.000000 -1.176943
v 0.459221 -0.000000 -1.108655
v 0.234109 -0.000000 -1.176942
v 0.234109 -0.000000 -1.176942
v 0.666685 -0.000000 -0.997763
v 0.848529 -0.000000 -0.848528
v 0.997764 -0.000000 -0.666684
v 1.108656 -0.000000 -0.459219
v 1.176943 -0.000000 -0.234107
v 1.200000 0.000000 0.000001
v 1.176942 0.000000 0.234110
v 1.108655 0.000000 0.459221
v 0.997763 0.000000 0.666685
v 0.848527 0.000000 0.848529
v 0.666683 0.000000 0.997764
v 0.459219 0.000000 1.108656
v 0.234107 0.000000 1.176943
v 0.234107 0.000000 1.176943
v -0.382683 -0.300000 0.923880
v -0.195090 -0.300000 0.980785
v -0.195090 -0.300000 0.980785
v -0.555570 -0.300000 0.831470
v -0.707107 -0.300000 0.707107
v -0.831470 -0.300000 0.555570
v -0.831470 -0.300000 0.555570
v -1.000000 -0.300000 0.000000
v -0.980785 -0.300000 0.195090
v -0.980785 -0.300000 0.195090
v -0.980785 -0.300000 -0.195090
v -0.980785 -0.300000 -0.195090
v -0.707107 -0.300000 -0.707107
v -0.831470 -0.300000 -0.555570
v -0.831470 -0.300000 -0.555570
v -0.555570 -0.300000 -0.831470
v -0.382683 -0.300000 -0.923880
v -0.195090 -0.300000 -0.980785
v -0.195090 -0.300000 -0.980785
v 0.382684 -0.300000 -0.923879
v 0.195091 -0.300000 -0.980785
v 0.195091 -0.300000 -0.980785
v 0.555571 -0.300000 -0.831469
v 0.707107 -0.300000 -0.707106
v 0.831470 -0.300000 -0.555570
v 0.831470 -0.300000 -0.555570
v 1.000000 -0.300000 0.000001
v 0.980785 -0.300000 -0.195089
v 0.980785 -0.300000 -0.195089
v 0.980785 -0.300000 0.195091
v 0.980785 -0.300000 0.195091
v 0.707106 -0.300000 0.707108
v 0.831469 -0.300000 0.555571
v 0.831469 -0.300000 0.555571
v 0.555569 -0.300000 0.831470
v 0.382682 -0.300000 0.923880
v 0.195089 -0.300000 0.980786
v 0.195089 -0.300000 0.980786
v -0.459220 -0.300000 1.108655
v -0.234108 -0.300000 1.176942
v -0.234108 -0.300000 1.176942
v -0.666684 -0.300000 0.997764
v -0.848528 -0.300000 0.848528
v -0.997764 -0.300000 0.666684
v -0.997764 -0.300000 0.666684
v -1.200000 -0.300000 0.000000
v -1.176942 -0.300000 0.234108
v -1.176942 -0.300000 0.234108
v -1.176942 -0.300000 -0.234108
v -1.176942 -0.300000 -0.234108
v -0.848528 -0.300000 -0.848528
v -0.997764 -0.300000 -0.666684
v -0.997764 -0.300000 -0.666684
v -0.666684 -0.300000 -0.997764
v -0.459220 -0.300000 -1.108656
v -0.234108 -0.300000 -1.176943
v -0.234108 -0.300000 -1.176943
v 0.459221 -0.300000 -1.108655
v 0.234109 -0.300000 -1.176942
v 0.234109 -0.300000 -1.176942
v 0.666685 -0.300000 -0.997763
v 0.848529 -0.300000 -0.848528
v 0.997764 -0.300000 -0.666684
v 0.997764 -0.300000 -0.666684
v 1.200000 -0.300000 0.000001
v 1.176943 -0.300000 -0.234107
v 1.176943 -0.300000 -0.234107
v 1.176942 -0.300000 0.234110
v 1.176942 -0.300000 0.234110
v 0.848527 -0.300000 0.848529
v 0.997763 -0.300000 0.666686
v 0.997763 -0.300000 0.666686
v 0.666683 -0.300000 0.997764
v 0.459219 -0.300000 1.108656
v 0.234107 -0.300000 1.176943
v 0.234107 -0.300000 1.176943
v -1.176942 -0.738654 0.234108
v -0.980785 -0.738654 0.195090
v 0.980785 -0.738654 -0.195089
v -0.923880 -0.738654 0.382684
v -0.923880 -0.738654 0.382684
v -0.831470 -0.738654 0.555570
v -0.831470 -0.738654 0.555570
v -0.831470 -0.738654 -0.555570
v -0.831470 -0.738654 -0.555570
v -0.923880 -0.738654 -0.382683
v -0.923880 -0.738654 -0.382683
v 0.923880 -0.738654 -0.382683
v 0.923880 -0.738654 -0.382683
v 0.831470 -0.738654 -0.555570
v 0.831470 -0.738654 -0.555570
v 0.831469 -0.738654 0.555571
v 0.831469 -0.738654 0.555571
v 0.923879 -0.738654 0.382685
v 0.923879 -0.738654 0.382685
v -1.108655 -0.738654 0.459220
v -1.108655 -0.738654 0.459220
v -0.997764 -0.738654 0.666684
v -0.997764 -0.738654 0.666684
v -0.997764 -0.738655 -0.666684
v -0.997764 -0.738655 -0.666684
v -1.108655 -0.738654 -0.459220
v -1.108655 -0.738654 -0.459220
v 1.108656 -0.738654 -0.459219
v 1.108656 -0.738654 -0.459219
v 0.997764 -0.738655 -0.666684
v 0.997764 -0.738655 -0.666684
v 0.997763 -0.738654 0.666686
v 0.997763 -0.738654 0.666686
v 1.108655 -0.738654 0.459221
v 1.108655 -0.738654 0.459221
v 1.176942 -0.738654 0.234110
v 0.980785 -0.738654 0.195091
v -0.980785 -0.738654 -0.195090
v 1.176943 -0.738654 -0.234107
v -1.176942 -0.738654 -0.234108
v -0.980785 -1.552912 0.195091
v -0.980785 -1.552912 0.195091
v -0.923880 -1.552912 0.382684
v -0.923880 -1.552912 0.382684
v -0.923880 -1.552912 -0.382683
v -0.923880 -1.552912 -0.382683
v -0.980785 -1.552912 -0.195090
v -0.980785 -1.552912 -0.195090
v 0.980785 -1.552912 -0.195089
v 0.980785 -1.552912 -0.195089
v 0.923880 -1.552912 -0.382682
v 0.923880 -1.552912 -0.382682
v 0.923879 -1.552912 0.382685
v 0.923879 -1.552912 0.382685
v 0.980785 -1.552912 0.195092
v 0.980785 -1.552912 0.195092
v -1.176942 -1.552912 0.234109
v -1.176942 -1.552912 0.234109
v -1.108655 -1.552912 0.459220
v -1.108655 -1.552912 0.459220
v -1.108655 -1.552912 -0.459220
v -1.108655 -1.552912 -0.459220
v -1.176942 -1.552912 -0.234108
v -1.176942 -1.552912 -0.234108
v 1.176943 -1.552912 -0.234107
v 1.176943 -1.552912 -0.234107
v 1.108656 -1.552912 -0.459219
v 1.108656 -1.552912 -0.459219
v 1.108655 -1.552912 0.459222
v 1.108655 -1.552912 0.459222
v 1.176942 -1.552912 0.234110
v 1.176942 -1.552912 0.234110
vn 0.000000 1.000000 0.000000
vn 0.000000 -1.000000 0.000000
vn -0.980800 0.000000 0.195100
vn 0.195100 0.000000 -0.980800
vn 0.923900 0.000000 -0.382700
vn 0.935900 0.000000 -0.352200
vn 0.881900 0.000000 -0.471400
vn -0.973800 0.000000 0.227100
vn -0.956900 0.000000 0.290300
vn -0.935900 0.000000 0.352200
vn -0.555600 0.000000 -0.831400
vn 0.555600 0.000000 -0.831400
vn -0.923900 0.000000 0.382700
vn -0.881900 0.000000 0.471400
vn -0.195100 0.000000 -0.980800
vn 0.980800 0.000000 0.195100
vn 0.980800 0.000000 -0.195100
vn -0.980800 0.000000 -0.195100
vn 0.382700 0.000000 0.923900
vn 0.555600 0.000000 0.831400
vn -0.707100 0.000000 0.707100
vn -0.555600 0.000000 0.831400
vn 0.973800 0.000000 0.227100
vn 0.923900 0.000000 0.382700
vn 0.290300 0.000000 0.956900
vn -0.831400 0.000000 0.555600
vn -0.849200 0.000000 0.528000
vn 0.849200 0.000000 0.528000
vn 0.831400 0.000000 0.555600
vn 0.707100 0.000000 0.707100
vn -1.000000 0.000000 0.000000
vn -0.973800 0.000000 -0.227100
vn -0.923900 0.000000 -0.382700
vn -0.831400 0.000000 -0.555600
vn -0.849200 0.000000 -0.528000
vn -0.707100 0.000000 -0.707100
vn -0.382700 0.000000 0.923900
vn -0.290300 0.000000 0.956900
vn -0.382700 0.000000 -0.923900
vn -0.290300 0.000000 -0.956900
vn 0.382700 0.000000 -0.923900
vn 0.290300 0.000000 -0.956900
vn 0.707100 0.000000 -0.707100
vn 0.831400 0.000000 -0.555600
vn 0.849200 0.000000 -0.528000
vn 0.973800 0.000000 -0.227100
vn 1.000000 0.000000 0.000000
vn -0.935900 0.000000 -0.352200
vn -0.956900 0.000000 -0.290300
vn 0.956900 0.000000 0.290300
vn 0.956900 0.000000 -0.290300
vn 0.935900 0.000000 0.352200
vn 0.881900 0.000000 0.471400
vn -0.195100 0.000000 0.980800
vn 0.195100 0.000000 0.980800
vn -0.881900 0.000000 -0.471400
s 1
f 227//1 226//1 192//1
f 212//1 213//1 179//1
f 166//1 200//1 199//1
f 215//1 212//1 178//1
f 167//1 201//1 200//1
f 216//1 215//1 181//1
f 202//1 201//1 167//1
f 217//1 216//1 182//1
f 169//1 203//1 202//1
f 218//1 217//1 183//1
f 170//1 204//1 203//1
f 219//1 218//1 184//1
f 171//1 205//1 204//1
f 220//1 219//1 185//1
f 172//1 206//1 205//1
f 221//1 220//1 186//1
f 173//1 207//1 206//1
f 222//1 221//1 187//1
f 174//1 208//1 207//1
f 223//1 222//1 188//1
f 175//1 209//1 208//1
f 224//1 223//1 189//1
f 176//1 210//1 209//1
f 195//1 196//1 162//1
f 225//1 224//1 190//1
f 164//1 198//1 195//1
f 226//1 225//1 191//1
f 199//1 198//1 164//1
f 264//2 302//2 303//2
f 249//2 287//2 286//2
f 234//2 233//2 271//2
f 194//3 266//3 304//3
f 251//2 248//2 286//2
f 114//4 143//4 131//4
f 251//2 289//2 290//2
f 111//5 332//6 334//7
f 252//2 290//2 291//2
f 236//2 238//2 276//2
f 275//8 305//9 324//10
f 239//2 236//2 274//2
f 110//11 335//11 319//11
f 71//12 313//12 329//12
f 257//2 295//2 293//2
f 96//13 324//10 326//14
f 255//2 293//2 296//2
f 241//2 243//2 281//2
f 67//15 306//15 135//15
f 244//2 241//2 279//2
f 81//13 316//10 307//9
f 244//2 282//2 283//2
f 197//16 269//16 231//16
f 262//2 300//2 298//2
f 245//2 283//2 284//2
f 229//2 230//2 268//2
f 260//2 298//2 301//2
f 247//17 285//17 211//17
f 232//2 229//2 267//2
f 263//2 301//2 302//2
f 214//18 288//18 250//18
f 232//2 270//2 271//2
f 59//19 119//19 118//20
f 34//21 94//21 93//22
f 9//16 240//23 70//24
f 60//25 120//25 119//19
f 34//21 35//26 273//27
f 10//24 70//24 242//28
f 36//13 96//13 273//27
f 11//29 242//28 72//30
f 37//3 275//8 96//13
f 12//30 72//30 73//20
f 38//31 98//31 275//8
f 13//20 73//20 74//19
f 39//18 278//32 98//31
f 14//19 74//19 75//25
f 40//33 100//33 278//32
f 41//34 280//35 100//33
f 42//36 102//36 280//35
f 17//37 16//38 76//38
f 42//36 43//11 103//11
f 17//37 77//37 78//22
f 43//11 44//39 104//39
f 18//22 78//22 79//21
f 45//40 105//40 104//39
f 19//21 79//21 254//27
f 21//13 20//26 254//27
f 21//13 81//13 256//8
f 47//41 107//41 106//42
f 22//3 256//8 83//31
f 47//41 48//12 108//12
f 23//31 83//31 259//32
f 49//43 109//43 108//12
f 24//18 259//32 85//33
f 50//44 292//45 109//43
f 25//33 85//33 261//35
f 51//5 111//5 292//45
f 26//34 261//35 87//36
f 1//42 61//42 62//41
f 52//17 294//46 111//5
f 27//36 87//36 88//11
f 2//41 62//41 63//12
f 53//47 113//47 294//46
f 28//11 88//11 89//39
f 3//12 63//12 64//43
f 54//16 297//23 113//47
f 29//39 89//39 90//40
f 4//43 64//43 235//45
f 55//24 115//24 297//23
f 5//44 235//45 66//5
f 55//24 56//29 299//28
f 6//5 66//5 237//46
f 57//30 117//30 299//28
f 32//37 92//37 91//38
f 8//47 7//17 237//46
f 58//20 118//20 117//30
f 33//22 93//22 92//37
f 8//47 68//47 240//23
f 308//2 310//2 327//2
f 306//15 346//15 362//15
f 318//2 140//2 333//2
f 143//4 376//4 360//4
f 330//48 365//49 367//49
f 312//2 315//2 331//2
f 133//19 364//19 348//19
f 323//2 339//2 336//2
f 70//24 240//23 342//50
f 294//46 343//51 332//6
f 95//20 134//20 311//20
f 70//24 314//52 126//53
f 85//33 259//32 341//49
f 261//35 85//33 322//48
f 99//54 137//54 125//54
f 278//32 100//33 330//48
f 112//55 82//55 129//55
f 235//45 122//7 309//6
f 280//35 138//56 330//48
f 115//24 338//52 340//50
f 116//22 86//22 132//22
f 66//5 309//6 123//51
f 299//28 144//53 338//52
f 81//13 254//27 128//14
f 347//2 363//2 361//2
f 355//2 371//2 369//2
f 349//2 351//2 368//2
f 359//2 375//2 373//2
f 130//37 358//37 374//37
f 307//9 316//10 356//9
f 139//39 372//39 150//39
f 343//51 370//51 158//51
f 341//49 152//49 151//49
f 125//54 137//54 156//54
f 340//50 338//52 159//50
f 129//55 149//55 157//55
f 124//41 350//41 155//41
f 309//6 146//51 145//51
f 305//9 153//9 154//9
f 342//50 148//50 147//50
f 193//1 227//1 192//1
f 178//1 212//1 179//1
f 165//1 166//1 199//1
f 181//1 215//1 178//1
f 166//1 167//1 200//1
f 182//1 216//1 181//1
f 168//1 202//1 167//1
f 183//1 217//1 182//1
f 168//1 169//1 202//1
f 184//1 218//1 183//1
f 169//1 170//1 203//1
f 185//1 219//1 184//1
f 170//1 171//1 204//1
f 186//1 220//1 185//1
f 171//1 172//1 205//1
f 187//1 221//1 186//1
f 172//1 173//1 206//1
f 188//1 222//1 187//1
f 173//1 174//1 207//1
f 189//1 223//1 188//1
f 174//1 175//1 208//1
f 190//1 224//1 189//1
f 175//1 176//1 209//1
f 161//1 195//1 162//1
f 191//1 225//1 190//1
f 161//1 164//1 195//1
f 192//1 226//1 191//1
f 165//1 199//1 164//1
f 265//2 264//2 303//2
f 248//2 249//2 286//2
f 272//2 234//2 271//2
f 228//3 194//3 304//3
f 289//2 251//2 286//2
f 84//4 114//4 131//4
f 252//2 251//2 290//2
f 292//45 111//5 334//7
f 253//2 252//2 291//2
f 274//2 236//2 276//2
f 96//13 275//8 324//10
f 277//2 239//2 274//2
f 80//11 110//11 319//11
f 101//12 71//12 329//12
f 255//2 257//2 293//2
f 273//27 96//13 326//14
f 258//2 255//2 296//2
f 279//2 241//2 281//2
f 97//15 67//15 135//15
f 282//2 244//2 279//2
f 256//8 81//13 307//9
f 245//2 244//2 283//2
f 163//16 197//16 231//16
f 260//2 262//2 298//2
f 246//2 245//2 284//2
f 267//2 229//2 268//2
f 263//2 260//2 301//2
f 177//17 247//17 211//17
f 270//2 232//2 267//2
f 264//2 263//2 302//2
f 180//18 214//18 250//18
f 233//2 232//2 271//2
f 58//20 59//19 118//20
f 33//22 34//21 93//22
f 10//24 9//16 70//24
f 59//19 60//25 119//19
f 94//21 34//21 273//27
f 11//29 10//24 242//28
f 35//26 36//13 273//27
f 12//30 11//29 72//30
f 36//13 37//3 96//13
f 13//20 12//30 73//20
f 37//3 38//31 275//8
f 14//19 13//20 74//19
f 38//31 39//18 98//31
f 15//25 14//19 75//25
f 39//18 40//33 278//32
f 40//33 41//34 100//33
f 41//34 42//36 280//35
f 77//37 17//37 76//38
f 102//36 42//36 103//11
f 18//22 17//37 78//22
f 103//11 43//11 104//39
f 19//21 18//22 79//21
f 44//39 45//40 104//39
f 20//26 19//21 254//27
f 81//13 21//13 254//27
f 22//3 21//13 256//8
f 46//42 47//41 106//42
f 23//31 22//3 83//31
f 107//41 47//41 108//12
f 24//18 23//31 259//32
f 48//12 49//43 108//12
f 25//33 24//18 85//33
f 49//43 50//44 109//43
f 26//34 25//33 261//35
f 50//44 51//5 292//45
f 27//36 26//34 87//36
f 2//41 1//42 62//41
f 51//5 52//17 111//5
f 28//11 27//36 88//11
f 3//12 2//41 63//12
f 52//17 53//47 294//46
f 29//39 28//11 89//39
f 4//43 3//12 64//43
f 53//47 54//16 113//47
f 30//40 29//39 90//40
f 5//44 4//43 235//45
f 54//16 55//24 297//23
f 6//5 5//44 66//5
f 115//24 55//24 299//28
f 7//17 6//5 237//46
f 56//29 57//30 299//28
f 31//38 32//37 91//38
f 68//47 8//47 237//46
f 57//30 58//20 117//30
f 32//37 33//22 92//37
f 9//16 8//47 240//23
f 325//2 308//2 327//2
f 135//15 306//15 362//15
f 317//2 318//2 333//2
f 131//4 143//4 360//4
f 344//49 330//48 367//49
f 328//2 312//2 331//2
f 121//19 133//19 348//19
f 320//2 323//2 336//2
f 314//52 70//24 342//50
f 111//5 294//46 332//6
f 65//20 95//20 311//20
f 242//28 70//24 126//53
f 322//48 85//33 341//49
f 321//56 261//35 322//48
f 69//54 99//54 125//54
f 344//49 278//32 330//48
f 141//55 112//55 129//55
f 66//5 235//45 309//6
f 100//33 280//35 330//48
f 297//23 115//24 340//50
f 337//22 116//22 132//22
f 237//46 66//5 123//51
f 115//24 299//28 338//52
f 316//10 81//13 128//14
f 345//2 347//2 361//2
f 353//2 355//2 369//2
f 366//2 349//2 368//2
f 357//2 359//2 373//2
f 142//37 130//37 374//37
f 354//9 307//9 356//9
f 127//39 139//39 150//39
f 332//6 343//51 158//51
f 322//48 341//49 151//49
f 352//54 125//54 156//54
f 160//50 340//50 159//50
f 141//55 129//55 157//55
f 136//41 124//41 155//41
f 123//51 309//6 145//51
f 324//10 305//9 154//9
f 314//52 342//50 147//50
