v -1.000000 0.000000 1.000000
vt 0.000119 0.000119
vn 0.707100 0.000000 0.707100
v 1.000000 0.000000 -1.000000
vt 1.000000 0.000000
vn 0.707100 0.000000 0.707100
v 1.000000 2.000000 -1.000000
vt 1.000000 1.000000
vn 0.707100 0.000000 0.707100
f 1/1/1 2/2/2 3/3/3
v 1.000000 0.000000 1.000000
vt 0.000000 0.000000
vn 0.707100 0.000000 -0.707100
v -1.000000 0.000000 -1.000000
vt 1.000000 0.000000
vn 0.707100 0.000000 -0.707100
v -1.000000 2.000000 -1.000000
vt 1.000000 1.000000
vn 0.707100 0.000000 -0.707100
f 4/4/4 5/5/5 6/6/6
v -1.000000 2.000000 1.000000
vt 0.000000 1.000000
vn 0.707100 0.000000 0.707100
v -1.000000 0.000000 1.000000
vt 0.000119 0.000119
vn 0.707100 0.000000 0.707100
v 1.000000 2.000000 -1.000000
vt 1.000000 1.000000
vn 0.707100 0.000000 0.707100
f 7/7/7 8/8/8 9/9/9
v 1.000000 2.000000 1.000000
vt 0.000119 0.999881
vn 0.707100 0.000000 -0.707100
v 1.000000 0.000000 1.000000
vt 0.000000 0.000000
vn 0.707100 0.000000 -0.707100
v -1.000000 2.000000 -1.000000
vt 1.000000 1.000000
vn 0.707100 0.000000 -0.707100
f 10/10/10 11/11/11 12/12/12
