# Blender v2.76 (sub 0) OBJ File: 'Grass.blend'
# www.blender.org
o Plane
v -1.000000 2.000000 1.000000
v -1.000000 0.000000 1.000000
v 1.000000 2.000000 -1.000000
v 1.000000 0.000000 -1.000000
v 1.000000 2.000000 1.000000
v 1.000000 0.000000 1.000000
v -1.000000 2.000000 -1.000000
v -1.000000 0.000000 -1.000000
vt 0.000119 0.000119
vt 1.000000 0.000000
vt 1.000000 1.000000
vt 0.000000 0.000000
vt 0.000000 1.000000
vt 0.000119 0.999881
vn 0.707100 0.000000 0.707100
vn 0.707100 0.000000 -0.707100
s off
f 2/1/1 4/2/1 3/3/1
f 6/4/2 8/2/2 7/3/2
f 1/5/1 2/1/1 3/3/1
f 5/6/2 6/4/2 7/3/2
