# Blender v2.76 (sub 0) OBJ File: 'SkyBoxBlue.blend'
# www.blender.org
o Cube
v 1.000000 -1.000000 -1.000000
v 1.000000 -1.000000 1.000000
v -1.000000 -1.000000 1.000000
v -1.000000 -1.000000 -1.000000
v 1.000000 1.000000 -0.999999
v 0.999999 1.000000 1.000001
v -1.000000 1.000000 1.000000
v -1.000000 1.000000 -1.000000
vt 0.500000 0.500000
vt 0.500000 0.000000
vt 0.000000 0.000000
vt 0.000000 0.500000
vt 0.500000 1.000000
vt 1.000000 0.500000
vt 1.000000 1.000000
vt 0.000000 1.000000
vn 0.577300 -0.577300 0.577300
vn -0.577300 -0.577300 0.577300
vn -0.577300 -0.577300 -0.577300
vn -0.577300 0.577300 -0.577300
vn -0.577300 0.577300 0.577300
vn 0.577300 0.577300 0.577300
vn 0.577300 0.577300 -0.577300
vn 0.577300 -0.577300 -0.577300
s 1
f 2/1/1 3/2/2 4/3/3
f 8/3/4 7/2/5 6/1/6
f 5/4/7 6/1/6 2/5/1
f 6/1/6 7/6/5 3/7/2
f 3/6/2 7/7/5 8/5/4
f 1/5/8 4/7/3 8/6/4
f 1/4/8 2/1/1 4/3/3
f 5/4/7 8/3/4 6/1/6
f 1/8/8 5/4/7 2/5/1
f 2/5/1 6/1/6 3/7/2
f 4/1/3 3/6/2 8/5/4
f 5/1/7 1/5/8 8/6/4
